# xmcd CD database file
#
# Track frame offsets:
#	150
#	17584
#	26639
#	43859
#	62182
#	89376
#	108950
#	131364
#	150331
#	169364
#	183821
#	200782
#	214883
#	231808
#	248104
#	267438
#	288513
#	303506
#
# Disc length: 4238 seconds
#
# Revision: 0
# Processed by: cddbd v1.5.2PL0 Copyright (c) Steve Scherf et al.
# Submitted via: CDex 1.95
#
DISCID=00108c12
DTITLE=Bruno Pedros - Recital de Guitarra Flamenca
DYEAR=2014
DGENRE=Jazz
TTITLE0=Guadalquivir
TTITLE1=Castellana en Re
TTITLE2=Zapateado en Re
TTITLE3=Zambra
TTITLE4=Bromce Gitano
TTITLE5=Granainas
TTITLE6=Malaguena
TTITLE7=Fuente y Caudal
TTITLE8=Recuerdo a Patino
TTITLE9=Solera
TTITLE10=Plaza de San JUan
TTITLE11=Homenaje a los maestros Ramon Y Paco
TTITLE12=Entre dos Bahias
TTITLE13=Callejon del Carmen
TTITLE14=Istambuleria
TTITLE15=Percusion Flamenca
TTITLE16=Granada
TTITLE17=O Sole Mio
EXTD=YEAR: 2014
EXTT0=
EXTT1=
EXTT2=
EXTT3=
EXTT4=
EXTT5=
EXTT6=
EXTT7=
EXTT8=
EXTT9=
EXTT10=
EXTT11=
EXTT12=
EXTT13=
EXTT14=
EXTT15=
EXTT16=
EXTT17=
PLAYORDER=
